<svg width="193" height="24" viewBox="0 0 193 24" fill="none" xmlns="http://www.w3.org/2000/svg">
<path d="M19.6338 3.93262L19.4882 3.99885C18.6094 3.20259 17.5869 2.579 16.4748 2.16101C15.2414 1.69006 13.9295 1.45551 12.6083 1.46974C11.341 1.45525 10.0817 1.66984 8.89158 2.10306C7.80013 2.49885 6.80667 3.12272 5.97814 3.93262C5.14505 4.76887 4.50087 5.7722 4.08857 6.87566C3.62038 8.14495 3.3918 9.48929 3.41432 10.8411C3.40258 12.3819 3.61854 13.916 4.05527 15.3943C4.44579 16.731 5.09626 17.9784 5.96982 19.0659C6.82882 20.1178 7.91967 20.9591 9.15795 21.5246C10.5558 22.1423 12.0738 22.4448 13.603 22.4104C14.2198 22.4106 14.835 22.3468 15.4385 22.22C16.0434 22.0919 16.6334 21.9019 17.199 21.6529C17.758 21.4024 18.2905 21.0974 18.7889 20.7423C19.2875 20.3799 19.744 19.9634 20.1499 19.5005L20.3247 19.6123L19.0387 22.874C18.1786 23.202 17.2876 23.4433 16.3791 23.5943C15.4099 23.7596 14.4283 23.8427 13.4449 23.8426C11.5946 23.8642 9.75403 23.5745 8.0009 22.9858C6.43659 22.4649 4.99108 21.642 3.74728 20.5643C2.56334 19.522 1.62051 18.2369 0.983677 16.7976C0.310071 15.2576 -0.0248233 13.5923 0.00143271 11.9132C0.00864189 10.9032 0.148562 9.89851 0.417638 8.92461C0.671433 7.94766 1.05052 7.00722 1.54555 6.12645C2.05396 5.23278 2.68113 4.41133 3.41015 3.68427C4.16324 2.93292 5.01435 2.28555 5.94068 1.75949C6.92603 1.20055 7.98119 0.773279 9.07887 0.488731C10.288 0.175302 11.5336 0.0222015 12.7831 0.0334088C14.7422 0.0152389 16.6897 0.334541 18.5392 0.977168L19.6338 3.93262Z" fill="black"/>
<path d="M39.7657 6.68525C39.7657 5.77875 39.7657 4.98814 39.7324 4.3093C39.6991 3.63045 39.6783 3.06751 39.6367 2.5501C39.5951 2.03269 39.5409 1.65601 39.491 1.31245C39.4484 1.03312 39.3886 0.756647 39.312 0.484591V0.414223H42.1755V0.480451C42.1131 0.703973 42.0507 0.981306 41.9924 1.30831C41.9216 1.71936 41.873 2.13388 41.8467 2.5501C41.8093 3.04681 41.776 3.63459 41.751 4.3093C41.726 4.984 41.7094 5.77875 41.7094 6.68525V15.3157C41.7422 16.6466 41.519 17.9715 41.0518 19.219C40.6556 20.2309 40.027 21.1367 39.2163 21.864C38.4033 22.5679 37.4418 23.0814 36.4028 23.3666C35.2365 23.6908 34.0301 23.8497 32.8192 23.8385C31.5964 23.8479 30.3776 23.6976 29.1941 23.3914C28.1315 23.1173 27.1388 22.6236 26.2806 21.9427C25.4289 21.2486 24.7591 20.3595 24.3286 19.3515C23.8254 18.1227 23.5845 16.8034 23.6211 15.4771V6.68525C23.6211 5.77875 23.6211 4.98814 23.5878 4.3093C23.5545 3.63045 23.5337 3.06751 23.4921 2.5501C23.4504 2.03269 23.3839 1.65601 23.3089 1.31245C23.234 0.968888 23.1882 0.703973 23.1216 0.484591V0.414223H26.9799V0.480451C26.9174 0.703973 26.855 0.981306 26.7967 1.30831C26.7385 1.63531 26.6844 2.04924 26.6427 2.5501C26.6011 3.05095 26.5678 3.63459 26.547 4.3093C26.5262 4.984 26.5137 5.77875 26.5137 6.68525V15.6551C26.4772 16.7307 26.6716 17.8018 27.0839 18.7968C27.4189 19.5637 27.9359 20.2384 28.5906 20.763C29.2144 21.2508 29.9372 21.5982 30.7091 21.7813C32.3054 22.1623 33.9698 22.1623 35.5662 21.7813C36.3374 21.5999 37.0592 21.2523 37.6805 20.763C38.3302 20.2365 38.8427 19.5621 39.1747 18.7968C39.5905 17.8027 39.7864 16.7312 39.749 15.6551L39.7657 6.68525Z" fill="black"/>
<path d="M56.2599 4.06094H55.9062C55.7968 3.77133 55.6573 3.49387 55.49 3.23308C55.0541 2.53407 54.4052 1.9917 53.6378 1.68499C53.1508 1.49295 52.63 1.40006 52.1062 1.41179C51.6276 1.40245 51.1515 1.48393 50.7036 1.65187C50.3192 1.80002 49.9715 2.02872 49.6839 2.32244C49.409 2.61745 49.1979 2.96543 49.0637 3.34484C48.9214 3.76765 48.851 4.21114 48.8556 4.657C48.8649 5.43735 49.0989 6.1987 49.5299 6.85083C50 7.59521 50.5467 8.28884 51.1614 8.92047C51.8051 9.59656 52.5099 10.2795 53.2757 10.9694C54.0225 11.6388 54.7311 12.3491 55.3984 13.097C56.0258 13.8032 56.5704 14.5781 57.0216 15.4067C57.4527 16.2058 57.6759 17.0994 57.6709 18.0062C57.6657 18.7112 57.5434 19.4106 57.3088 20.0759C57.0707 20.7777 56.6896 21.4231 56.1892 21.9717C55.645 22.5555 54.9806 23.0157 54.2413 23.3211C53.3447 23.689 52.3808 23.8666 51.4111 23.8426C50.8256 23.8443 50.2414 23.7874 49.6672 23.6729C49.149 23.5707 48.6386 23.4324 48.1398 23.259C47.7121 23.1088 47.295 22.9304 46.8912 22.725C46.5785 22.5662 46.2756 22.3893 45.9838 22.1952L46.3542 18.6602H46.7705C46.8891 19.1641 47.0841 19.647 47.349 20.0924C47.6146 20.5412 47.9488 20.9462 48.3395 21.2928C48.7368 21.641 49.1898 21.9208 49.6797 22.1207C50.2085 22.3329 50.7744 22.4385 51.3445 22.4311C51.8468 22.4389 52.3463 22.3547 52.8179 22.1828C53.2322 22.0303 53.6115 21.7966 53.9333 21.4956C54.2451 21.202 54.4894 20.8448 54.6492 20.4484C54.819 20.026 54.9038 19.5746 54.8989 19.1197C54.9045 18.4802 54.7784 17.8463 54.5285 17.257C54.2755 16.6767 53.9481 16.1313 53.5546 15.6344C53.1369 15.1064 52.6806 14.6097 52.1894 14.1484C51.6817 13.6682 51.1586 13.1853 50.6204 12.6996C50.0876 12.2154 49.5632 11.7186 49.0554 11.2054C48.5507 10.6948 48.0925 10.1407 47.6861 9.54965C47.2855 8.96875 46.9597 8.34019 46.7163 7.67868C46.4615 6.97401 46.336 6.22953 46.3459 5.48072C46.3335 4.69326 46.5015 3.91332 46.837 3.19997C47.1505 2.54116 47.5935 1.95145 48.1398 1.4656C48.6703 0.998592 49.2826 0.632406 49.9461 0.385248C50.6244 0.13019 51.3436 -0.000244086 52.0687 0.00029397C52.5642 -0.0040102 53.059 0.0389592 53.5463 0.128612C53.961 0.198902 54.371 0.294283 54.7741 0.414223C55.132 0.534263 55.4483 0.650163 55.7147 0.766063L56.3723 1.05581L56.2599 4.06094Z" fill="black"/>
<path d="M67.6931 1.82158C66.5491 1.81613 65.4056 1.87279 64.2677 1.9913C63.2494 2.10444 62.3712 2.22448 61.6332 2.35141C60.7716 2.50871 60.0058 2.6867 59.3315 2.8771L59.7977 0.285906C59.9267 0.285906 60.1182 0.310742 60.3762 0.31902L61.2378 0.352135C61.5541 0.352135 61.887 0.352135 62.2325 0.37697H63.2231H64.0555H74.2816H75.114H76.1046C76.4501 0.37697 76.783 0.37697 77.0993 0.352135L77.9609 0.31902C78.2189 0.31902 78.4104 0.298324 78.5394 0.285906L78.9972 2.8978C78.3105 2.70739 77.5364 2.5294 76.6831 2.37211C75.9423 2.24379 75.0599 2.12375 74.0444 2.01199C72.9066 1.89348 71.7631 1.83683 70.619 1.84228V17.0956C70.619 18.0021 70.619 18.7927 70.6607 19.4674C70.7023 20.1421 70.7189 20.7092 70.7564 21.2183C70.7827 21.6345 70.8313 22.049 70.9021 22.4601C70.9603 22.7913 71.0227 23.0686 71.0852 23.288V23.3501H67.2436V23.288C67.3166 23.0153 67.375 22.739 67.4184 22.4601C67.4725 22.129 67.5225 21.7192 67.5641 21.2183C67.6057 20.7175 67.639 20.1462 67.6598 19.4674C67.6806 18.7886 67.6931 18.0021 67.6931 17.0956V1.82158Z" fill="black"/>
<path d="M91.8122 0.0334091C93.5043 0.0161409 95.185 0.310867 96.7692 0.902661C98.238 1.44779 99.5823 2.27954 100.723 3.34898C101.839 4.419 102.721 5.70711 103.312 7.1323C103.94 8.67939 104.25 10.336 104.223 12.0042C104.225 13.0122 104.106 14.0168 103.87 14.997C103.64 15.9694 103.292 16.9105 102.833 17.7993C102.382 18.6721 101.823 19.4856 101.168 20.2207C100.503 20.9628 99.7366 21.6092 98.8919 22.1414C98.0147 22.6827 97.0665 23.1006 96.0741 23.3832C94.992 23.6931 93.8706 23.8465 92.7445 23.8385C91.0521 23.8553 89.3709 23.565 87.7833 22.9817C86.3227 22.4466 84.9862 21.6228 83.8544 20.5602C82.7361 19.4984 81.8541 18.2152 81.2656 16.7934C80.6254 15.2462 80.3068 13.5861 80.3291 11.9132C80.3277 10.9066 80.4464 9.90337 80.6829 8.92461C80.9119 7.95323 81.2599 7.01348 81.7192 6.12645C82.1673 5.24518 82.7268 4.42447 83.384 3.68427C84.0444 2.94041 84.8066 2.29249 85.6482 1.75949C86.5264 1.2049 87.4793 0.777042 88.4784 0.488731C89.5617 0.177351 90.6846 0.0239781 91.8122 0.0334091ZM92.7278 22.3856C93.8482 22.4 94.9593 22.1829 95.9909 21.7481C96.9685 21.3268 97.8388 20.6932 98.5381 19.8937C99.2861 19.0245 99.8521 18.0155 100.203 16.9259C100.617 15.6422 100.818 14.3001 100.798 12.9521C100.811 11.416 100.619 9.88494 100.228 8.39892C99.8921 7.09058 99.318 5.85456 98.5339 4.7522C97.8005 3.74268 96.8398 2.9177 95.7287 2.34314C94.5152 1.74058 93.1724 1.44082 91.8164 1.46974C90.6952 1.45599 89.5831 1.67155 88.5492 2.10306C87.5743 2.51779 86.7043 3.1427 86.002 3.93262C85.2555 4.79358 84.6895 5.79417 84.3372 6.87566C83.9228 8.15639 83.7217 9.49587 83.742 10.8411C83.7309 12.3769 83.9211 13.9075 84.308 15.3943C84.632 16.7093 85.1963 17.9539 85.9728 19.0659C86.7101 20.0942 87.6794 20.9363 88.803 21.5246C90.0189 22.1335 91.3669 22.4349 92.7278 22.4022V22.3856Z" fill="black"/>
<path d="M159.121 23.7433V23.6812C159.147 23.6033 159.163 23.5228 159.171 23.4411C159.171 23.3335 159.171 23.2383 159.171 23.1514C159.164 22.7833 159.118 22.417 159.034 22.0586C158.903 21.5449 158.727 21.0435 158.509 20.5602L156.565 16.2139C155.962 16.1891 155.167 16.1808 154.168 16.1808H148.499C147.713 16.1808 147.001 16.1808 146.373 16.2139L144.52 20.4319C144.362 20.8458 144.187 21.2597 144.009 21.7275C143.829 22.1809 143.735 22.6639 143.734 23.1514C143.732 23.2668 143.743 23.382 143.767 23.4949C143.779 23.5597 143.8 23.6225 143.83 23.6812V23.7433H140.55V23.6812C140.83 23.3485 141.073 22.9862 141.274 22.6008C141.552 22.0848 141.868 21.4377 142.223 20.6595L151.434 0.331436H152.724L161.464 19.873C161.668 20.3325 161.88 20.7796 162.101 21.21C162.322 21.6405 162.517 22.0379 162.721 22.369C162.925 22.7002 163.083 22.9982 163.233 23.23C163.383 23.4618 163.487 23.615 163.541 23.6812V23.7433H159.121ZM148.716 14.8066H150.626H152.549H154.36C154.939 14.8066 155.464 14.7983 155.933 14.7817L151.404 4.58663L146.964 14.8066H148.716Z" fill="black"/>
<path d="M165.505 0.749506L166.196 0.782621L166.758 0.803317C166.95 0.803317 167.108 0.803317 167.224 0.803317C167.428 0.803317 167.77 0.803317 168.244 0.774342L169.876 0.708113L171.782 0.646024C172.444 0.625327 173.06 0.61291 173.638 0.61291C175.138 0.604903 176.632 0.798441 178.079 1.18827C179.432 1.54792 180.693 2.19151 181.775 3.07579C182.879 4.00762 183.744 5.18645 184.301 6.51554C184.968 8.17654 185.285 9.95578 185.234 11.7435C185.251 13.0922 185.086 14.4371 184.743 15.742C184.446 16.8494 183.983 17.9059 183.369 18.8755C182.797 19.7609 182.083 20.5468 181.255 21.2018C180.431 21.8539 179.523 22.3915 178.554 22.7995C177.534 23.2243 176.468 23.5298 175.378 23.7102C174.224 23.9062 173.056 24.0032 171.886 23.9999C171.47 23.9999 170.941 23.9999 170.338 23.9585L168.51 23.8716L166.783 23.7847C166.242 23.7557 165.822 23.7433 165.535 23.7433V23.6812C165.597 23.4577 165.659 23.1803 165.718 22.8533C165.776 22.5263 165.826 22.1124 165.872 21.6115C165.918 21.1107 165.947 20.5395 165.967 19.8606C165.988 19.1818 166.001 18.3953 166.001 17.4888V7.08263C166.001 6.17612 166.001 5.37724 165.967 4.69011C165.934 4.00299 165.913 3.41107 165.872 2.91436C165.83 2.41764 165.776 2.00371 165.718 1.67257C165.659 1.34143 165.597 1.04754 165.535 0.84471L165.505 0.749506ZM169.027 2.18998C169.006 3.3821 168.981 4.53696 168.96 5.65871C168.96 6.13887 168.96 6.6273 168.935 7.12816C168.91 7.62901 168.935 8.12159 168.935 8.61003C168.935 9.09846 168.935 9.55792 168.935 10.0008C168.935 10.4437 168.935 10.8287 168.935 11.1764C168.935 11.8883 168.935 12.7521 168.935 13.7676C168.935 14.7831 168.948 15.8221 168.972 16.8845C168.972 17.9483 169.014 18.9748 169.047 19.9558C169.081 20.9368 169.118 21.7523 169.16 22.4022C169.31 22.4229 169.509 22.4477 169.763 22.4725C170.017 22.4974 170.279 22.5222 170.558 22.5346C170.837 22.547 171.112 22.5677 171.391 22.576C171.669 22.5843 171.882 22.576 172.065 22.576C172.837 22.5752 173.609 22.524 174.375 22.4228C175.155 22.3246 175.921 22.1342 176.656 21.8558C177.4 21.5752 178.101 21.1905 178.737 20.7133C179.416 20.1956 179.994 19.5587 180.443 18.8341C180.969 17.9747 181.356 17.039 181.592 16.0608C181.89 14.8052 182.029 13.5176 182.008 12.2278C182.029 10.7548 181.829 9.28706 181.413 7.87323C181.064 6.68939 180.47 5.59112 179.669 4.64872C178.891 3.77072 177.916 3.08841 176.822 2.65772C175.578 2.1853 174.254 1.95484 172.922 1.97888C172.631 1.97888 172.306 1.97888 171.94 2.00371L170.816 2.06994C170.458 2.06994 170.121 2.10719 169.805 2.13203C169.489 2.15687 169.231 2.17756 169.027 2.18998Z" fill="black"/>
<path d="M189.154 23.6812C189.231 23.4091 189.291 23.1327 189.333 22.8533C189.387 22.5222 189.433 22.1124 189.479 21.6115C189.525 21.1107 189.554 20.5395 189.575 19.8606C189.595 19.1818 189.608 18.3953 189.608 17.4888V7.08263C189.608 6.17612 189.608 5.38552 189.575 4.70667C189.541 4.02783 189.52 3.46488 189.479 2.94747C189.437 2.43006 189.387 2.04097 189.333 1.70568C189.291 1.42635 189.231 1.14988 189.154 0.877825V0.828154H193V0.894382C192.922 1.16666 192.86 1.44304 192.813 1.72224C192.754 2.05338 192.709 2.46317 192.667 2.96403C192.625 3.46488 192.6 4.04438 192.571 4.72323C192.542 5.40207 192.534 6.19268 192.534 7.09918V17.4929C192.534 18.4008 192.546 19.1914 192.571 19.8648C192.6 20.5436 192.63 21.1066 192.667 21.6157C192.704 22.1248 192.754 22.5181 192.813 22.8575C192.86 23.1367 192.922 23.4131 193 23.6853V23.7474H189.154V23.6812Z" fill="black"/>
<path d="M132.642 2.48387L132.384 0.828154H131.847L121.442 12.8321L111.703 0.828154H109.659C109.626 1.12618 109.576 1.56909 109.505 2.16101C109.434 2.75293 109.347 3.44833 109.243 4.23065C109.139 5.01298 109.014 5.91535 108.881 6.8798C108.748 7.84426 108.606 8.84597 108.464 9.88493C108.323 10.9239 108.169 11.9794 108.015 13.0515C107.861 14.1236 107.703 15.1708 107.549 16.1932C107.395 17.2156 107.245 18.1966 107.099 19.128C106.954 20.0593 106.825 20.8996 106.704 21.6488C106.64 22.0855 106.521 22.5125 106.35 22.9196C106.234 23.1835 106.094 23.4369 105.934 23.6771V23.7433H109.147C109.118 23.5694 109.085 23.3749 109.051 23.1514C109.018 22.9278 109.01 22.7374 108.989 22.4477C108.968 22.1579 108.956 21.8475 108.956 21.4874C108.956 21.1976 108.981 20.7547 109.035 20.1504C109.089 19.546 109.164 18.8548 109.251 18.0807C109.339 17.3067 109.447 16.425 109.567 15.5309C109.688 14.6368 109.801 13.7055 109.921 12.7866C110.199 10.6479 110.525 8.31338 110.899 5.78289L121.446 17.0956L132.642 2.48387Z" fill="black"/>
<path d="M136.101 23.1803C136.021 22.9858 135.938 22.7333 135.851 22.4311C135.763 22.129 135.68 21.7606 135.593 21.3342C135.505 20.9079 135.426 20.3987 135.356 19.7985L132.929 4.03197L121.446 19.6206L111.961 8.99498L111.624 11.6152L121.467 23.6522L131.639 9.62415L132.471 21.2514C132.491 21.4198 132.507 21.5771 132.521 21.7233C132.521 21.8682 132.521 22.0089 132.521 22.1372C132.525 22.4589 132.5 22.7804 132.446 23.0976C132.42 23.2947 132.37 23.4879 132.296 23.6729V23.7391H136.346V23.6729C136.252 23.5151 136.17 23.3504 136.101 23.1803Z" fill="black"/>
</svg>
