<svg width="20" height="24" viewBox="0 0 20 24" fill="none" xmlns="http://www.w3.org/2000/svg">
<path d="M9.53084 11.3866C6.38651 11.3866 3.83752 8.83765 3.83752 5.69332C3.83752 2.54899 6.38651 0 9.53084 0C12.6752 0 15.2242 2.54899 15.2242 5.69332C15.2242 7.20328 14.6243 8.6514 13.5566 9.7191C12.4889 10.7868 11.0408 11.3866 9.53084 11.3866ZM9.53084 1.26518C7.08525 1.26518 5.10271 3.24773 5.10271 5.69332C5.10271 8.13891 7.08525 10.1215 9.53084 10.1215C11.9764 10.1215 13.959 8.13891 13.959 5.69332C13.9674 4.51343 13.5046 3.37898 12.6732 2.54169C11.8419 1.7044 10.7108 1.23355 9.53084 1.23355V1.26518Z" fill="#212A2F"/>
<path d="M17.2928 23.7158H1.76897C1.25606 23.7203 0.764851 23.5092 0.415226 23.1339C0.121896 22.8176 -0.0270124 22.3938 0.00404226 21.9636C0.516441 16.3715 4.60931 12.1521 9.53086 12.1521C14.4524 12.1521 18.5453 16.3398 19.0577 21.9636C19.0978 22.4045 18.9483 22.8416 18.6465 23.1655C18.2914 23.5292 17.8009 23.7286 17.2928 23.7158ZM9.53086 13.3856C5.2672 13.3856 1.71204 17.1116 1.2629 22.0458C1.2574 22.1329 1.28967 22.2182 1.35146 22.2799C1.46074 22.3925 1.61208 22.4544 1.76897 22.4507H17.2928C17.4496 22.4544 17.601 22.3925 17.7103 22.2799C17.7721 22.2182 17.8043 22.1329 17.7988 22.0458C17.3497 17.1116 13.7945 13.3856 9.53086 13.3856Z" fill="#212A2F"/>
</svg>
